<svg xmlns="http://www.w3.org/2000/svg" xmlns:xlink="http://www.w3.org/1999/xlink" height="128" width="128">
<defs>
<linearGradient id="h" gradientUnits="userSpaceOnUse" y1="86.1" x2="0" y2="42.2">
<stop stop-color="#fff" stop-opacity=".66" offset="0"/>
<stop stop-color="#ff0122" offset=".44"/>
<stop stop-color="#c00000" offset="1"/>
</linearGradient>
<radialGradient id="c" gradientUnits="userSpaceOnUse" cy="109" cx="111" r="12">
<stop offset="0"/>
<stop stop-opacity=".8" offset=".9"/>
<stop stop-color="#737373" stop-opacity="0" offset="1"/>
</radialGradient>
<radialGradient id="d" gradientUnits="userSpaceOnUse" cy="65.1" cx="33.7" r="27">
<stop offset="0"/>
<stop offset=".9"/>
<stop stop-color="#737373" stop-opacity="0" offset="1"/>
</radialGradient>
<radialGradient id="g" gradientUnits="userSpaceOnUse" cy="21.2" cx="70.6" gradientTransform="matrix(-1.13 0 0 -.815 113 62)" r="22.7">
<stop stop-color="#fff" offset="0"/>
<stop stop-color="#ffe7e4" offset=".3"/>
<stop stop-color="#fec1b9" offset=".5"/>
<stop stop-color="#ff1e00" offset="1"/>
</radialGradient>
<radialGradient id="e" gradientUnits="userSpaceOnUse" cy="82" cx="32.2" r="35.2">
<stop stop-color="#ff746f" offset="0"/>
<stop stop-color="#f00" offset=".6"/>
<stop stop-color="#730000" offset="1"/>
</radialGradient>
<radialGradient id="f" gradientUnits="userSpaceOnUse" cy="23.6" cx="70.6" gradientTransform="matrix(-.474 0 0 -.389 143 108)" r="22.7">
<stop stop-color="#fff" offset="0"/>
<stop stop-color="#f8f8ff" offset=".45"/>
<stop stop-color="#a8a5ff" offset="1"/>
</radialGradient>
<radialGradient id="b" gradientUnits="userSpaceOnUse" cy="72.4" cx="71.2" gradientTransform="matrix(.511 0 0 .494 73.6 80.6)" r="31.9">
<stop stop-color="#e6ecff" offset="0"/>
<stop stop-color="#a9a6ff" offset=".5"/>
<stop stop-color="#8a84ff" offset="1"/>
</radialGradient>
</defs>
<circle cy="65" cx="33.7" r="27" fill="url(#d)"/>
<circle r="25.1" cy="64.3" stroke="#600" cx="32.7" stroke-width="2.4" fill="url(#e)"/>
<g id="a">
<circle cy="109.3" cx="110.7" r="12" fill="url(#c)"/>
<circle r="11" cy="108.5" stroke="#008" cx="110" stroke-width="1.8" fill="url(#b)"/>
<circle opacity="0.5" r="10" cy="108.5" stroke="#fff" cx="110" stroke-width="0.4" fill="none"/>
<path d="m110 98.7c-3.22 0-6.08 1.55-7.87 3.95 0.08 3 3.57 5.46 7.87 5.46 4.3 0 7.8-2.44 7.88-5.46-1.79-2.4-4.66-3.95-7.88-3.95z" fill="url(#f)"/>
</g>
<circle opacity="0.7" r="23.5" cy="64.3" stroke="url(#h)" cx="32.7" stroke-width="0.8" fill="none"/>
<use xlink:href="#a" transform="translate(0 -90)"/>
<use xlink:href="#a" transform="translate(0 -45)"/>
<path fill="url(#g)" d="m32.7 41.21c-7.52 0-14.18 3.614-18.35 9.214 0.1946 7.048 8.332 12.73 18.35 12.73s18.18-5.684 18.38-12.73c-4.175-5.6-10.86-9.214-18.38-9.214z"/>
<g stroke="#000">
<path d="m83.6 64-3.6 3.6 12.6-3.6-12.6-3.6 3.6 3.6z"/>
<path id="i" d="m60 80 29 17m-3.1-1.8-1.3-5 9.1 9.5-12.7-3.2 4.9-1.3z"/>
<path d="m63 64h28m-7.4 0-3.6 3.6 12.6-3.6-12.6-3.6 3.6 3.6z"/>
<use xlink:href="#i" transform="matrix(1 0 0 -1 0 128)"/>
</g>
</svg>