<?xml version="1.0" encoding="UTF-8" standalone="no"?>
<svg xmlns="http://www.w3.org/2000/svg" xmlns:xlink="http://www.w3.org/1999/xlink" xml:space="preserve" width="60" height="60" overflow="visible" viewBox="0 0 256 256">
  <defs>
    <linearGradient id="h">
      <stop offset="0" stop-color="#06c"/>
      <stop offset=".9944" stop-color="#036"/>
    </linearGradient>
    <linearGradient id="a" x1="36.277802" x2="153.5439" y1="66.6035" y2="66.6035" gradientTransform="rotate(90 79.01705 45.81295)" gradientUnits="userSpaceOnUse">
      <stop offset="0" stop-color="#b0d9ff"/>
      <stop offset="1" stop-color="#e6edff"/>
    </linearGradient>
    <linearGradient xlink:href="#a" id="l" x1="125.8564" x2="125.8564" y1="56.8018" y2="245.86279" gradientTransform="translate(314.34501 14.817526)" gradientUnits="userSpaceOnUse"/>
    <linearGradient id="g" x1="38.0459" x2="42.7284" y1="9.2207" y2="4.5382" gradientUnits="userSpaceOnUse">
      <stop offset="0" stop-color="#fff"/>
      <stop offset="1" stop-color="#b1b1c5"/>
    </linearGradient>
    <linearGradient id="f" x1="10.9888" x2="15.1345" y1="31.4541" y2="35.5997" gradientTransform="matrix(1.0041 -.0041 -.0041 1.0041 .4338 -.4339)" gradientUnits="userSpaceOnUse">
      <stop offset="0" stop-color="#fff"/>
      <stop offset="1" stop-color="red"/>
    </linearGradient>
    <linearGradient id="e" x1="2.5518" x2="26.4961" y1="32.7422" y2="32.7422" gradientUnits="userSpaceOnUse">
      <stop offset="0" stop-color="#f8310e"/>
      <stop offset="1" stop-color="#a50100"/>
    </linearGradient>
    <linearGradient id="d" x1="1.6201" x2="27.5762" y1="32.667" y2="32.667" gradientUnits="userSpaceOnUse">
      <stop offset="0" stop-color="#7c0000"/>
      <stop offset="1" stop-color="#633"/>
    </linearGradient>
    <linearGradient id="c" x1="32.9082" x2="34.2736" y1="13.0674" y2="14.4326" gradientUnits="userSpaceOnUse">
      <stop offset="0" stop-color="#fff"/>
      <stop offset=".404" stop-color="#cacad8"/>
      <stop offset=".6348" stop-color="#b1b1c5"/>
      <stop offset=".8494" stop-color="#999ab3"/>
      <stop offset="1" stop-color="#8d8faa"/>
    </linearGradient>
    <linearGradient id="b" x1="32.3389" x2="34.7765" y1="12.4985" y2="14.9361" gradientUnits="userSpaceOnUse">
      <stop offset="0" stop-color="#616161"/>
      <stop offset="1" stop-color="#494949"/>
    </linearGradient>
    <linearGradient xlink:href="#b" id="t" x1="32.3389" x2="34.7765" y1="12.4985" y2="14.9361" gradientTransform="translate(392.89302 302.52701)" gradientUnits="userSpaceOnUse"/>
    <linearGradient xlink:href="#c" id="u" x1="32.9082" x2="34.2736" y1="13.0674" y2="14.4326" gradientTransform="translate(392.89302 302.52701)" gradientUnits="userSpaceOnUse"/>
    <linearGradient xlink:href="#d" id="v" x1="1.6201" x2="27.5762" y1="32.667" y2="32.667" gradientTransform="translate(392.89302 302.52701)" gradientUnits="userSpaceOnUse"/>
    <linearGradient xlink:href="#e" id="w" x1="2.5518" x2="26.4961" y1="32.7422" y2="32.7422" gradientTransform="translate(392.89302 302.52701)" gradientUnits="userSpaceOnUse"/>
    <linearGradient xlink:href="#f" id="x" x1="10.9888" x2="15.1345" y1="31.4541" y2="35.5997" gradientTransform="matrix(1.0041 -.0041 -.0041 1.0041 393.32682 302.09311)" gradientUnits="userSpaceOnUse"/>
    <linearGradient xlink:href="#g" id="y" x1="38.0459" x2="42.7284" y1="9.2207" y2="4.5382" gradientTransform="translate(392.89302 302.52701)" gradientUnits="userSpaceOnUse"/>
    <radialGradient xlink:href="#h" id="k" cx="116.8169" cy="47.079601" r="182.3371" fx="116.8169" fy="47.079601" gradientTransform="translate(314.34501 14.817526)" gradientUnits="userSpaceOnUse"/>
  </defs>
  <g stroke="#000" transform="matrix(1.00322 0 0 .9582 -2.46946 5.76204)">
    <radialGradient id="i" cx="116.8169" cy="47.0796" r="182.3371" fx="116.8169" fy="47.0796" gradientUnits="userSpaceOnUse">
      <stop offset="0" stop-color="#fff"/>
      <stop offset=".5955" stop-color="#9cf"/>
      <stop offset=".9944" stop-color="#39f"/>
    </radialGradient>
    <path fill="url(#i)" stroke="none" d="M126.148 237.98c61.959 0 112.223-50.473 112.223-112.395 0-61.528-50.262-112.01-112.223-112.01-61.52.003-112.213 50.482-112.213 112.01.001 61.923 50.694 112.395 112.213 112.395z"/>
    <path stroke="none" d="M212.02 53.625c16.439 19.511 26.352 44.645 26.352 71.961 0 61.922-50.264 112.395-112.223 112.395-27.129 0-52.15-9.819-71.649-26.104 20.659 24.496 51.51 40.104 85.714 40.104 61.959 0 112.223-50.473 112.223-112.395-.001-34.409-15.724-65.359-40.417-85.961z" opacity=".2"/>
    <path fill="#036" stroke="none" d="M126.148 7C60.647 7.003 7.359 60.201 7.359 125.586c0 65.6 53.288 118.971 118.789 118.971 65.506 0 118.799-53.371 118.799-118.971C244.947 60.197 191.654 7 126.148 7zm0 230.98c-61.52 0-112.213-50.473-112.213-112.395 0-61.528 50.693-112.007 112.213-112.01 61.961 0 112.223 50.482 112.223 112.01 0 61.923-50.264 112.395-112.223 112.395z"/>
    <linearGradient xlink:href="#h" id="j" x1="125.8564" x2="125.8564" y1="56.8018" y2="245.862793" gradientUnits="userSpaceOnUse"/>
    <path fill="url(#j)" stroke="none" d="M88.875 25.919c-.555 0-1.162.229-1.785.581 1.46-.429 2.147-.581 1.785-.581zm36.13 7.05.364-5.285-5.579.351.738 4.935h4.477zm-62.949 91.345c-1.121-1.06-.371-5.646-.371-5.646s-16.764-8.811-35.015-14.105c-2.251-.653-1.114-5.287 1.112-7.045l-.743-4.953c-.369-2.459 3.728-14.449 7.825-15.502 4.099-1.064-.372 7.048-.372 7.048l-4.097 2.469s4.839 5.638 5.962 5.638c1.114 0 2.977-2.822 2.977-2.822l-5.213-3.516 4.844-2.123.303-1.859.813-.257 8.016-12.143c5.541-2.267 12.349-5.076 13.216-5.491 1.49-.701 11.919-6.69 13.781-8.104 1.867-1.416 5.957-1.057 7.443-1.057 1.497 0 3.731-.708 4.101-4.593.372-3.878 1.865-4.584 2.984-3.523 1.116 1.053-1.122 2.818 1.488 3.523 2.607.709 4.837 2.472 6.704.709 1.362-1.293-.46-2.763-1.688-3.874h20.681l2.24-6.358-4.842-.704-17.886-1.762v-2.117l-1.426.241c1.937-10.639 13.438-8.886 4.781-15.045-.526-.378-8.101 11.936-10.028 11.696-3.492-.46-8.004-.496-8.968.638-1.269 1.499 2.857-5.158 6.412-7.177-5.672 1.672-23.594 7.803-42.542 27.986-18.112 19.294-25.334 45.287-25.334 46.197 0 1.761 3.728 2.469 4.101 4.587.373 2.106-7.074 9.167-7.074 12.693 0 1.625-1.758 23.361 4.463 41.267 7.269 20.896 22.783 38.348 24.587 39.496l3.721-1.77s-8.566-15.16-8.938-16.576c-.369-1.404 9.684-21.861 14.529-21.15 4.839.693 3.725 2.115 6.705.35 2.978-1.76 4.84-16.229 8.192-17.629 3.355-1.418 7.077-3.178 6.711-6.703-.379-3.535-13.041-9.877-14.159-10.934h.004zm80.828-103.685-10.056-3.53 1.863 5.648 8.193-2.118zm-37.623 13.049c1.121 0 23.469-14.806 21.232-15.164-2.23-.35-2.606 0-8.573-.705-5.955-.707-12.294 8.465-13.778 9.877-1.486 1.415-.985 5.992 1.119 5.992zm102.555 106.334 2.885-3.742-2.885-1.016-2.163 2.721-2.521 3.73 2.162 1.023 2.522-2.716zm12.614 12.244-.722-5.441h-4.677l-.363 4.074-4.333-.672-1.075-4.424-2.161-1.357-2.53 3.055-2.516-.676-.726 2.371 2.887.691v22.088l10.202 2.455c-.234.408-.411.752-.471.938-.727 2.383 2.881 3.41 5.399 2.383.942-.375 3.908-3.375 5.771-7.809 2.598-6.178 4.866-14.334 5.322-17.217l1.169-2.496-7.212 2.715-3.967-.674.003-.004zm15.144-41.132-1.882-3.645c-2.229-12.572-7.343-28.67-18.3-45.3-16.493-25.001-62.38-39.422-62.38-39.422l-2.518 3.052-1.445-2.372-3.607-1.365v3.059l3.25 2.725-2.164 1.018-8.294.676-18.746 10.201 1.797 8.155-2.166.686-1.072 1.695 6.126 9.172.361 3.065-5.046 1.018v6.114l-2.882.679.363 4.761-24.521 17 .723 9.507c1.798 2.383 15.865 16.662 15.865 16.662s16.218.671 19.826-1.361c3.605-2.039 1.08 2.036 2.164 3.057 1.08 1.027 1.441 8.156 2.52 8.839 1.08.678 0 4.753 1.443 6.12 1.441 1.35 1.441 17.676 1.441 17.676s8.653 14.607 8.653 18.352c0 3.736-.361 3.396 6.492 3.059 6.85-.34 8.289-3.059 9.728-4.074 1.448-1.023 1.448-3.404 2.892-5.445 1.445-2.043 3.959-9.855 7.21-12.57 3.241-2.727 11.895-4.768 12.612-9.52.721-4.76 3.966-8.502 3.966-8.502l15.587-16.487-.438 2.217-.363 8.488 4.688-1.695-.357-9.183-1.686-1.779.24-.259s-1.085-2.036-2.521-2.036c-1.442 0-10.101 2.036-11.537 1.699-1.445-.342-7.578-16.658-8.658-17.331-1.082-.681-7.928-11.899-7.928-11.899s15.86 19.036 18.384 26.509c1.464 4.354 6.966.302 11.443-4.243l1.184 2.888 2.88-.687-.361-3.397h3.243v5.099l-1.08 2.72-.371 4.415 2.889 2.726 1.446-2.376 4.677-4.423 5.413-2.721 1.443 2.721.723 3.741-1.448 4.076-2.88 2.379-1.443 6.12v3.051l-3.24-2.035-.361-6.455-4.686.344-2.161 5.77 3.244 4.769 7.568 1.018 6.133-5.786.718-11.206 2.726-3.601c1.777 4.566 3.046 9.345 3.046 13.795 0 4.88 2.23-3.381.332-18.264l1.106-1.453v-.001zm-90.852-34.668-19.466-.69 8.285-6.793h4.33l6.85 4.754v2.728l.001.001zm23.799-2.378v3.059h-8.291l.72 2.042-5.051.684-.358 1.693-3.604-.674-6.492-1.368 1.084-1.694 1.083-2.048 3.603-3.734 1.445 2.721 5.41-.342 2.881-3.061 11.172 2.04-3.601.686v-.004zm.714-4.424-4.321.679-.72-3.063 5.4-.677.726-3.057 3.973 4.084-5.058 2.029v.005zm20.914 105.701-2.526 2.039.359 5.105h3.246v-4.412l2.889-3.748v-7.814l-1.805-.35-2.159 9.18h-.004zM166 165.17s-2.525.664.355 1.691c2.88 1.025 14.42-16.645 14.42-16.645l-9.735 6.109-5.044 8.844H166zm-19.626 65.143-2.156-2.055-4.328-.689-.718 2.057-5.766-.678-.362-2.738h-4.324l-4.685 2.738h-8.286l-.719-2.057-13.33-1.375-2.166 2.053-5.401-1.359-.721-4.801-2.522-.35-2.883 5.15-9.726-.346c1.737.824 16.267 9.488 38.545 11.301 29.547 2.389 43.601-4.793 43.601-4.793l-1.082-1.031-12.972-1.023v-.004z"/>
    <path fill="#FFF" stroke="none" d="M125.77 103.102c38.438 0 71.876-13.245 89.079-32.765-17.323-33.064-50.796-55.63-89.243-55.63-38.111.002-71.629 22.492-89.064 55.463 17.159 19.612 50.68 32.932 89.228 32.932z" opacity=".5"/>
  </g>
  <g transform="rotate(-30 425.7115478 754.63084867) scale(1.5)">
    <path d="M420.24901 19.522526c-.333-.677-1.022-1.104-1.778-1.104h-89.744c-1.098-.001-1.985.886-1.983 1.983V137.66753c-.002.85.54 1.605 1.344 1.879.807.273 1.694.004 2.213-.674l89.745-117.266004c.459-.599.538-1.405.203-2.084zm-37.915 18.73c-2.572 3.361-30.1 39.326-35.759 46.721v-46.722c3.235 0 29.541.001 35.759.001z" opacity=".2"/>
    <path fill="url(#k)" d="M419.22201 17.011526c-.333-.676-1.022-1.104-1.778-1.104h-89.745c-1.098-.001-1.985.886-1.983 1.983V135.15753c-.002.85.54 1.605 1.344 1.879.807.271 1.694.004 2.213-.674l89.745-117.266004c.46-.599.538-1.405.204-2.085zm-37.916 18.731c-2.572 3.361-30.099 39.327-35.759 46.72v-46.721c3.235 0 29.541.001 35.759.001z"/>
    <path fill="url(#l)" d="m417.44401 17.892526-89.746-.001V135.15753l89.746-117.265004zm-32.125 15.867c-14.212 18.573-23.667 30.926-41.754 54.56 0-26.179-.002-41.793 0-54.561 12.153-.001 22.564.001 41.754.001z"/>
    <path fill="#fff" d="m417.44401 17.892526-89.746-.001V135.15753l89.746-117.265004zm-4.014 1.984c-4.432 5.788-77.371 101.092004-83.751 109.426004.001-10.381.002-105.787004.002-109.428004 3.62.002 76.587 0 83.749.002zm-24.094 11.899-45.772-.001-1.983.001v62.398l47.755-62.398zm-4.017 1.984c-14.212 18.573-23.667 30.926-41.754 54.56 0-26.179-.002-41.793 0-54.561 12.153-.001 22.564.001 41.754.001z" opacity=".5"/>
    <path fill="#94caff" d="m327.69801 135.15753 89.746-117.265004-3.967-.001-85.779 112.084004v5.182z"/>
    <path fill="#fff" d="m417.44401 17.892526-3.967-.001-1.518 1.984c.611 0 1.135-.001 1.471.001-4.432 5.788-77.371 101.092004-83.751 109.426004 0-.469.001-1.117.002-1.92l-1.983 2.594v5.182l89.746-117.266004z" opacity=".2"/>
  </g>
  <g stroke="#000" transform="matrix(1.5 0 0 1.5 78.373025 -9.2723836)">
    <path stroke="none" d="M116.627 90.393c-.126-2.568-1.467-11.307-13.418-15.904-2.704-1.039-5.196-1.061-7.41-.066-4.209 1.898-6.063 6.787-7.177 9.762-1.734-1.268-4.737-3.658-7.792-6.219l-.346-.289-1.311-.303c.162 2.271.557 4.533 1.124 6.764-.929-1.844-1.615-3.693-1.434-5.676l-1.23-.285C72.586 63.933 62.311 41.04 48.417 41.04h-1.109l13.227 33.177-33.278-7.701-1.21-.281.311 1.205c3.295 12.682 25.779 19.051 40.192 21.867l1.301 3.264.134.119c.229.199.46.402.688.607-.512.055-1.023.092-1.535.15l.101.09c2.954 2.598 5.808 5.236 7.332 6.758-2.771 1.549-7.33 4.127-8.568 8.574-.199.719-.298 1.461-.297 2.205-.001 1.666.498 3.385 1.482 5.107 5.311 9.287 12.783 12.641 21.614 9.693 2.223-.74 5.842-3.84 6.921-8.412.72-3.043.522-7.719-4.487-12.727l-9.527-9.529-.424-.418c-.648-.629-1.315-1.279-1.312-1.695.002-.068.031-.307.296-.73-3.84.197-7.582.516-11.33.908 3.351-.68 6.701-1.16 10.052-.879.266-.701.902-1.516 1.901-2.436l.338-.307-.117-.439c-.015-.057-.04-.15-.074-.271.211-.168.416-.307.615-.4.128.357.255.711.391 1.063.145-.08.239-.104.276-.111.412-.066 1.157.496 1.881 1.041.234.178.386.287.514.373-.005-.002-.036-.012-.036-.012l10.854 7.973c5.683 4.172 10.418 3.422 13.393 2.055 4.485-2.055 7.43-6.707 7.683-10.033l.016-.252.006-.094v-.092l-.005-.057zm-36.582 18.236c3.084 0 5.599 2.053 5.599 4.58 0 2.523-2.513 4.58-5.599 4.58-3.089.002-5.601-2.057-5.601-4.58 0-2.527 2.512-4.58 5.601-4.58zM106.8 87.508c.204 2.879-1.405 5.316-3.74 5.674-1.035.158-2.117-.131-3.047-.814-1.224-.896-2.07-2.365-2.327-4.025-.069-.457-.089-.939-.057-1.436l.006-.123-.008-.127c-.204-2.877 1.401-5.316 3.739-5.674 2.495-.383 4.908 1.791 5.376 4.84.067.459.088.941.056 1.436l-.006.123.008.126z" opacity=".2"/>
    <path fill="#333" stroke="none" d="M102.267 71.994c-2.798-1.074-5.387-1.094-7.692-.055-4.17 1.877-6.063 6.488-7.2 9.508-1.804-1.348-4.629-3.607-7.383-5.914l-.411-.346-1.883-.436.035.498c.279 3.92 1.252 8.072 2.892 12.338l.17.344.512-.227c.255-.041 1.094.596 1.597.975l.533.383-.048-.023 10.851 7.975c5.827 4.279 10.7 3.502 13.765 2.096 4.61-2.117 7.636-6.92 7.9-10.35l.014-.258.007-.109v-.111l-.002-.055c-.132-2.627-1.496-11.551-13.657-16.233m-3.11 17.93c-1.146-.842-1.942-2.223-2.181-3.787-.065-.432-.084-.885-.057-1.354l.013-.15-.012-.153c-.188-2.682 1.283-4.955 3.426-5.283 2.299-.352 4.518 1.682 4.957 4.533.063.432.083.889.054 1.355l-.01.146.01.152c.191 2.686-1.281 4.957-3.426 5.283-.939.147-1.923-.119-2.774-.742z"/>
    <path fill="#300" stroke="none" d="m79.409 75.527-1.309-.303c.295 4.154 1.349 8.281 2.867 12.23.146-.082.24-.105.278-.111.411-.068 1.155.494 1.879 1.039.235.178.386.289.515.371-.004-.002-.036-.01-.036-.01l10.855 7.971c5.682 4.174 10.418 3.422 13.391 2.057 4.486-2.057 7.43-6.709 7.684-10.033l.015-.254.007-.094v-.09l-.002-.057c-.126-2.566-1.467-11.307-13.419-15.904-2.702-1.039-5.195-1.061-7.408-.064-4.211 1.896-6.065 6.785-7.177 9.76-1.735-1.27-4.738-3.66-7.794-6.219l-.346-.289m17.152 9.106-.008-.125c-.203-2.877 1.401-5.318 3.739-5.674 2.494-.383 4.907 1.789 5.376 4.842.066.457.088.939.056 1.434l-.006.123.008.127c.204 2.877-1.405 5.318-3.741 5.674-1.034.158-2.117-.129-3.046-.814-1.224-.896-2.071-2.367-2.328-4.025-.068-.459-.088-.939-.056-1.436l.006-.126z"/>
    <path fill="#333" stroke="none" d="m79.506 90.408.372-.598-.704.035c-4.399.227-8.701.584-13.152 1.086l-.828.096.729.639c2.679 2.357 5.342 4.809 6.964 6.398-2.814 1.582-7.088 4.154-8.312 8.561-.209.748-.314 1.523-.315 2.301.001 1.73.518 3.51 1.534 5.291 5.405 9.457 13.029 12.867 22.05 9.861 2.306-.768 6.052-3.969 7.165-8.682.187-.803.314-1.713.314-2.709 0-2.902-1.084-6.543-4.899-10.363l-9.532-9.529-.426-.418c-.42-.408-1.196-1.164-1.196-1.424-.001-.002.009-.18.236-.545m-.535 24.863c-2.886 0-5.232-1.889-5.233-4.211 0-2.32 2.348-4.209 5.233-4.209 2.881 0 5.229 1.889 5.229 4.209 0 2.323-2.346 4.211-5.229 4.211z"/>
    <path fill="#300" stroke="none" d="m66.063 91.299.1.088c2.955 2.6 5.809 5.238 7.333 6.76-2.771 1.549-7.331 4.125-8.568 8.574-.2.719-.298 1.461-.297 2.205-.001 1.666.498 3.383 1.482 5.107 5.31 9.289 12.783 12.639 21.615 9.693 2.221-.74 5.841-3.84 6.92-8.412.72-3.043.521-7.719-4.486-12.729l-9.529-9.527-.424-.418c-.647-.629-1.314-1.279-1.311-1.695.002-.068.031-.307.295-.73-4.453.228-8.778.592-13.13 1.084m12.908 15.181c3.085 0 5.598 2.053 5.598 4.58 0 2.523-2.511 4.58-5.598 4.58-3.089 0-5.6-2.057-5.6-4.58 0-2.527 2.511-4.58 5.6-4.58z"/>
    <path fill="#333" stroke="none" d="m25.054 63.728 1.21.28 51.922 12.017-.031.318c-.233 2.574 1.063 4.928 2.435 7.418l1.501 2.832-.648-.004-.323.004c-.495.084-1.334.557-2.527 2.34l-.378.561-.675-.07c-1.947-.209-47.746-5.307-52.614-24.043l-.464-1.79.592.137z"/>
    <path fill="#444" stroke="none" d="m26.182 64.367 51.607 11.944c-.318 3.488 2.044 6.561 3.688 9.912-.137-.016-.278-.016-.418.006-.824.141-1.759.982-2.774 2.498l-.253.379-.451-.049c-1.938-.207-47.496-5.285-52.297-23.766l-.312-1.204 1.21.28z"/>
    <path fill="#c00" stroke="none" d="M77.789 76.311c-.318 3.488 2.044 6.561 3.688 9.912.744.07 1.487.627 2.326 1.26l.469.352 10.854 7.971c5.242 3.85 9.557 3.18 12.253 1.943 4.054-1.861 6.806-6.16 7.028-9.076l.016-.242.006-.094-.002-.035c-.119-2.396-1.381-10.555-12.698-14.906-2.409-.928-4.608-.959-6.539-.088-3.816 1.717-5.566 6.404-6.614 9.207-.169.455-.352.938-.495 1.264-1.37-.842-5.438-4.072-9.048-7.096l-.138-.115-1.106-.257m17.641 8.326-.004-.049c-.245-3.469 1.771-6.424 4.693-6.871 3.112-.475 6.102 2.121 6.662 5.787.082.535.107 1.1.069 1.676l-.002.051.005.047c.244 3.473-1.775 6.426-4.696 6.873-1.334.203-2.714-.158-3.889-1.02-1.462-1.076-2.474-2.813-2.771-4.77-.084-.533-.107-1.096-.071-1.676l.004-.048z"/>
    <path fill="#fcc" stroke="none" d="M78.795 77.465c-.483 2.709 1.12 5.318 2.306 8.002 1.309-.125 2.432.889 3.617 1.76 2.713 1.992 0 0 10.854 7.973 10.146 7.449 17.734-2.051 18.086-6.586.006-.09.01-.184.017-.277-.219-4.441-3.005-10.697-12.217-14.238C91.221 70.158 89.35 84.895 88.29 84.713c-.956-.162-8.084-6.07-9.495-7.248m15.879 7.176c-.271-3.801 2.009-7.158 5.332-7.668 3.527-.539 6.896 2.336 7.521 6.416.094.627.113 1.238.077 1.838.267 3.801-2.01 7.158-5.334 7.666-3.525.541-6.893-2.33-7.519-6.416-.093-.625-.112-1.239-.077-1.836z"/>
    <path fill="#eee" stroke="none" d="M78.548 77.26s.09.074.247.205c-.483 2.709 1.12 5.318 2.306 8.002-1.001.098-2.111.854-3.441 2.844 0 0-46.922-5.021-51.647-23.211l52.535 12.16z"/>
    <linearGradient id="m" x1="45.6138" x2="47.885399" y1="81.916" y2="93.687202" gradientTransform="matrix(-1 0 0 1 99.7148 -9.4111)" gradientUnits="userSpaceOnUse">
      <stop offset="0" stop-color="#fff"/>
      <stop offset="1"/>
    </linearGradient>
    <path fill="url(#m)" stroke="none" d="M78.548 78.389s.006.004.01.006c.479 2.441 1.193 4.838 1.901 7.223-.833.314-1.747 1.117-2.8 2.693 0 0-44.802-4.795-51.253-21.99l52.142 12.068z"/>
    <linearGradient id="n" x1="46.2817" x2="46.2817" y1="73.764603" y2="101.6131" gradientTransform="matrix(-1 0 0 1 99.7148 -9.4111)" gradientUnits="userSpaceOnUse">
      <stop offset="0" stop-color="#fff"/>
      <stop offset="1" stop-color="#616161"/>
    </linearGradient>
    <path fill="url(#n)" stroke="none" d="M78.548 78.389s.006.004.01.006c.479 2.441 1.193 4.838 1.901 7.223-.833.314-1.747 1.117-2.8 2.693 0 0-44.802-4.795-51.253-21.99l52.142 12.068z" opacity=".7"/>
    <linearGradient id="o" x1="-13.9141" x2="21.1572" y1="95.664101" y2="95.664101" gradientTransform="matrix(-1 0 0 1 99.7148 -9.4111)" gradientUnits="userSpaceOnUse">
      <stop offset="0" stop-color="#f99"/>
      <stop offset=".7977" stop-color="#f33"/>
      <stop offset="1" stop-color="#c33"/>
    </linearGradient>
    <path fill="url(#o)" stroke="none" d="M88.29 85.842c-1.048-.178-9.542-7.287-9.732-7.447.479 2.441 1.193 4.838 1.901 7.223 1.597-.605 2.887.6 4.259 1.609 2.713 1.992 0 0 10.854 7.973 9.95 7.311 17.446-1.695 18.057-6.318-.426-4.391-3.355-10.264-12.171-13.656C91.221 71.289 89.35 86.023 88.29 85.842m6.384-1.201c-.271-3.801 2.009-7.158 5.332-7.668 3.527-.539 6.896 2.336 7.521 6.416.094.627.113 1.238.077 1.838.002.031 0 .061.002.094.006.133.01.266.013.4.002.186-.003.371-.013.555-.002.027-.002.055-.002.08.269 3.803-2.01 7.158-5.334 7.668-3.525.537-6.893-2.334-7.519-6.418-.094-.623-.113-1.236-.078-1.836-.002-.031 0-.063-.002-.092-.006-.133-.01-.268-.012-.402-.002-.188.004-.373.012-.559.001-.024.001-.049.003-.076z"/>
    <path stroke="none" d="m57.637 71.646 17.203 3.98c2.036 5.451 3.414 10.025 4.051 12.27-.199.252-.4.525-.606.83l-.253.379-.451-.049c-.664-.068-6.421-.711-13.903-2.262l-6.041-15.148z" opacity=".2"/>
    <path fill="#333" stroke="none" d="M46.233 38.522h1.11c20.013-.001 32.527 46.468 33.049 48.445l.176.656-.499.459c-.955.873-1.564 1.646-1.811 2.293l-.098.26-.278-.023c-3.571-.303-7.154.297-10.186.922l-.181.033-1.05-.928-20.777-52.118.545.001z"/>
    <path fill="#666" stroke="none" d="M67.621 91.17c-.235-.213-.475-.422-.712-.629l-.134-.119-20.542-51.531h1.109c19.738 0 32.174 46.205 32.695 48.172l.117.439-.338.307c-.998.918-1.636 1.734-1.9 2.436-3.433-.288-6.861.22-10.295.925z"/>
    <path fill="#c00" stroke="none" d="M67.621 91.17c3.344 2.967 6.749 6.141 7.68 7.234-.301.193-.755.449-1.184.688-2.609 1.457-6.98 3.898-8.102 7.932-.172.623-.258 1.26-.259 1.904 0 1.465.445 2.992 1.337 4.545 5.078 8.887 11.899 11.977 20.276 9.182 1.918-.635 5.21-3.494 6.178-7.604.652-2.758.456-7.023-4.185-11.664l-9.521-9.523-.421-.412c-.893-.869-1.666-1.619-1.65-2.523.002-.213.052-.441.146-.684-3.433-.288-6.861.22-10.295.925m11.35 14.182c3.71 0 6.727 2.561 6.727 5.709 0 3.15-3.017 5.711-6.727 5.711-3.711 0-6.731-2.561-6.731-5.711-.001-3.149 3.02-5.709 6.731-5.709z"/>
    <path fill="#fcc" stroke="none" d="M68.31 90.773c2.193 1.955 7.668 6.889 7.94 7.705.34 1.02-13.943 5.098-8.503 14.623 5.44 9.52 12.244 11.223 19.384 8.842 3.227-1.074 10.601-9.125 1.7-18.025-9.522-9.521-7.142-7.141-9.522-9.521-1.233-1.236-2.659-2.352-2.201-4.098-2.934.183-5.868.353-8.798.474M78.971 104.6c4.13 0 7.48 2.891 7.48 6.461 0 3.57-3.351 6.463-7.48 6.463-4.134 0-7.483-2.893-7.483-6.463 0-3.57 3.349-6.461 7.483-6.461z"/>
    <path fill="#fff" stroke="none" d="M67.408 89.975 47.342 39.644c19.384.001 31.969 47.61 31.969 47.61-1.331 1.219-1.986 2.203-2.204 3.045-2.934.184-5.867.354-8.798.475-.554-.493-.901-.799-.901-.799z"/>
    <linearGradient id="p" x1="34.213902" x2="42.2299" y1="73.294899" y2="76.834503" gradientTransform="matrix(-1 0 0 1 99.7148 -9.4111)" gradientUnits="userSpaceOnUse">
      <stop offset="0" stop-color="#ddd"/>
      <stop offset="1" stop-color="#bbb"/>
    </linearGradient>
    <path fill="url(#p)" stroke="none" d="M67.408 89.975 47.354 39.673c18.948 1.224 31.202 47.581 31.202 47.581-1.917 1.76-2.438 3.035-2.259 4.086-2.246.035-4.521.156-6.746.551-1.234-1.116-2.143-1.916-2.143-1.916z"/>
    <linearGradient id="q" x1="37.431599" x2="42.241299" y1="74.715797" y2="76.8396" gradientTransform="matrix(-1 0 0 1 99.7148 -9.4111)" gradientUnits="userSpaceOnUse">
      <stop offset="0" stop-color="#fff"/>
      <stop offset="1"/>
    </linearGradient>
    <path fill="url(#q)" stroke="none" d="m48.545 39.817 20.312 49.691s.913.793 2.151 1.895c1.733-.338 3.502-.506 5.261-.596-.01.186-.002.363.028.533-2.246.035-4.521.156-6.746.551-1.234-1.115-2.144-1.916-2.144-1.916L47.354 39.673c.4.026.798.079 1.191.144z" opacity=".2"/>
    <linearGradient id="r" x1="39.923801" x2="34.0131" y1="68.457001" y2="62.546299" gradientTransform="matrix(-1 0 0 1 99.7148 -9.4111)" gradientUnits="userSpaceOnUse">
      <stop offset="0" stop-color="#ddd"/>
      <stop offset="1" stop-color="#fff"/>
    </linearGradient>
    <path fill="url(#r)" stroke="none" d="M60.034 54.065c-2.432-2.864-5.301-4.876-8.439-6.31l-2.735-7.142c11.51.775 20.403 19.91 25.279 33.447-7.051-4.173-9.254-13.485-14.105-19.995z"/>
    <linearGradient id="s" x1="12.5264" x2="38.496799" y1="110.9141" y2="126.1576" gradientTransform="matrix(-1 0 0 1 99.7148 -9.4111)" gradientUnits="userSpaceOnUse">
      <stop offset="0" stop-color="#f99"/>
      <stop offset=".7584" stop-color="#f33"/>
      <stop offset="1" stop-color="#c33"/>
    </linearGradient>
    <path fill="url(#s)" stroke="none" d="M69.552 91.891c2.543 2.287 6.467 5.9 6.698 6.588.34 1.02-13.943 5.098-8.503 14.623 3.917 6.852 8.535 9.65 13.479 9.799 1.689-.039 3.409-.379 5.151-.957 3.227-1.074 10.603-9.125 1.701-18.025-9.521-9.521-7.143-7.141-9.521-9.521-.972-.971-2.062-1.869-2.26-3.057-2.245.034-4.521.155-6.745.55m8.666 12.709c.125 0 .25.01.376.018.125-.008.249-.018.377-.018 4.13 0 7.48 2.891 7.48 6.461 0 3.57-3.351 6.463-7.48 6.463-.129 0-.252-.012-.377-.02-.126.008-.25.02-.376.02-4.134 0-7.483-2.893-7.483-6.463-.001-3.569 3.349-6.461 7.483-6.461z"/>
    <path fill="#777" stroke="none" d="M73.903 81.607c0 1.803-1.463 3.266-3.265 3.266-1.806 0-3.267-1.463-3.268-3.266.001-1.807 1.461-3.268 3.268-3.268 1.802.001 3.265 1.464 3.265 3.268z"/>
    <path fill="#c00" stroke="none" d="M77.637 91.891h-9.974v-1.318h9.974v1.318zm3.74-5.577-.782.203-2.714-10.375.783-.205 2.713 10.377z"/>
  </g>
  <g transform="matrix(3 0 0 3 -1081.0186 -798.02762)">
    <path d="m438.87702 306.81901-.58-.582-1.356-1.355-.463.234-4.447 2.251.053-.024c-1.611.657-1.674 2.871-1.618 3.84l-15.107 15.106 2.109 2.111 15.105-15.102c.915.05 3.183 0 3.844-1.623l-.025.053 2.485-4.909z" opacity=".2"/>
    <path d="m420.76402 328.70501-6.131-6.131-3.199 1.179.226.83c.023.086.555 2.126-1.107 3.355-3.5 2.587-14.949 11.408-15.313 16.294-.066.885.207 1.66.79 2.242l1.257 1.259c.583.581 1.358.854 2.243.789 4.885-.364 13.707-11.813 16.294-15.313 1.228-1.663 3.268-1.132 3.354-1.109l.824.226.302-.8.883-2.398-.423-.423z" opacity=".2"/>
    <path fill="url(#t)" d="m438.16202 306.46101-.58-.581-1.356-1.356-.464.233-4.447 2.252.053-.024c-1.611.657-1.674 2.871-1.618 3.84l-15.107 15.106 2.11 2.111 15.103-15.103c.916.049 3.184-.001 3.844-1.623l-.023.054 2.485-4.909z"/>
    <path fill="url(#u)" d="m437.07502 306.38401-.773-.773-.215-.215-4.448 2.252c-1.468.598-1.16 3.399-1.154 3.455l-14.829 14.828 1.098 1.099 14.83-14.83c.051.006 2.855.315 3.454-1.153l2.252-4.448-.215-.215z"/>
    <path fill="url(#v)" d="m420.04802 328.34701-6.131-6.131-3.199 1.178.226.83c.023.086.555 2.126-1.107 3.354-3.502 2.589-14.95 11.41-15.314 16.295-.066.886.207 1.66.79 2.243l1.257 1.258c.583.581 1.358.854 2.243.79 4.885-.365 13.707-11.813 16.294-15.313 1.228-1.663 3.268-1.132 3.354-1.108l.824.226.302-.8.883-2.398-.422-.424z"/>
    <path fill="url(#w)" d="m418.71102 330.84501.678-1.84-2.855-2.854-2.854-2.854-1.838.678s.773 2.709-1.452 4.354c-2.226 1.644-17.999 13.547-14.419 17.128l.387.387.484.484.387.387c3.581 3.58 15.483-12.192 17.128-14.418 1.644-2.227 4.354-1.452 4.354-1.452z"/>
    <path fill="url(#x)" d="M415.66902 326.30101s-1.821-1.821-2.433-2.434c-.241.09-.299.111-.569.211.084.999-.021 2.663-1.374 4.017-.174.174-.368.342-.585.502-3.554 2.635-7.276 5.739-10.084 8.547-2.646 2.647-4.481 5.029-4.597 6.508-.035.444.113.654.247.788l1.258 1.257c.133.134.343.282.788.248 1.478-.117 3.861-1.951 6.507-4.598 2.809-2.809 5.913-6.531 8.547-10.086.161-.216.329-.41.503-.584 1.353-1.354 3.018-1.459 4.015-1.375.101-.27.122-.328.212-.568-.615-.611-2.435-2.433-2.435-2.433z"/>
    <path fill="url(#y)" d="M435.90502 306.53301c-.9.456-3.88 1.964-3.88 1.964l-.035.014c-.057.023-.108.06-.156.108-.354.354-.471 1.319-.436 2.084.114.114.475.476.585.584.766.036 1.73-.082 2.085-.435.047-.048.084-.1.106-.156l.014-.035s1.509-2.979 1.965-3.88c-.113-.111-.138-.137-.248-.248z"/>
  </g>
</svg>